<svg xmlns="http://www.w3.org/2000/svg" xmlns:xlink="http://www.w3.org/1999/xlink" width="302" height="301" viewBox="0 0 302 301"><defs><clipPath id="b"><rect width="302" height="301"/></clipPath></defs><g id="a" clip-path="url(#b)"><rect width="302" height="301" fill="#fff"/><g transform="translate(-29.5 -235)"><ellipse cx="86.5" cy="150" rx="86.5" ry="150" transform="translate(94 236)" fill="rgba(59,6,6,0.7)"/><ellipse cx="86" cy="150" rx="86" ry="150" transform="translate(330.5 300) rotate(90)" fill="rgba(59,6,6,0.7)"/><circle cx="8" cy="8" r="8" transform="translate(92 298)" fill="#3b0606"/><circle cx="8" cy="8" r="8" transform="translate(253 298)" fill="#3b0606"/><circle cx="8" cy="8" r="8" transform="translate(92 458)" fill="#3b0606"/><circle cx="8" cy="8" r="8" transform="translate(253 458)" fill="#3b0606"/><path d="M98.143,48.071H91.418V34.622a33.622,33.622,0,1,0-67.245,0V48.071H17.449A13.489,13.489,0,0,0,4,61.52v67.245a13.489,13.489,0,0,0,13.449,13.449H98.143a13.489,13.489,0,0,0,13.449-13.449V61.52A13.489,13.489,0,0,0,98.143,48.071ZM57.8,108.592A13.449,13.449,0,1,1,71.245,95.143,13.489,13.489,0,0,1,57.8,108.592Zm20.846-60.52H36.95V34.622a20.846,20.846,0,1,1,41.692,0Z" transform="translate(122 310.888)" fill="#d2baaf"/></g></g></svg>